{
  "accessors": [
    {
      "bufferView": 2,
      "componentType": 5126,
      "count": 6512,
      "max": [
        0.10999999940395355,
        0.10999999195337296,
        0.10999999195337296
      ],
      "min": [
        -0.11000001430511475,
        -0.10999999195337296,
        -0.10999999940395355
      ],
      "type": "VEC3"
    },
    {
      "bufferView": 2,
      "byteOffset": 78144,
      "componentType": 5126,
      "count": 6512,
      "max": [
        0.9995993375778198,
        0.9999712705612183,
        0.9998034238815308
      ],
      "min": [
        -0.999599277973175,
        -0.999971330165863,
        -0.9998034834861755
      ],
      "type": "VEC3"
    },
    {
      "bufferView": 1,
      "componentType": 5126,
      "count": 6512,
      "max": [
        0.9916471242904663,
        0.99321448802948
      ],
      "min": [
        0.004711642861366272,
        0.008477071300148964
      ],
      "type": "VEC2"
    },
    {
      "bufferView": 0,
      "componentType": 5125,
      "count": 34560,
      "type": "SCALAR"
    }
  ],
  "asset": {
    "extras": {
      "author": "welham14 (https://sketchfab.com/welham14)",
      "license": "CC-BY-4.0 (http://creativecommons.org/licenses/by/4.0/)",
      "source": "https://sketchfab.com/3d-models/adidas-soccer-ball-0619450a3c4544ff910282c9ec7ad639",
      "title": "Adidas Soccer Ball"
    },
    "generator": "Sketchfab-12.68.0",
    "version": "2.0"
  },
  "bufferViews": [
    {
      "buffer": 0,
      "byteLength": 138240,
      "name": "floatBufferViews",
      "target": 34963
    },
    {
      "buffer": 0,
      "byteLength": 52096,
      "byteOffset": 138240,
      "byteStride": 8,
      "name": "floatBufferViews",
      "target": 34962
    },
    {
      "buffer": 0,
      "byteLength": 156288,
      "byteOffset": 190336,
      "byteStride": 12,
      "name": "floatBufferViews",
      "target": 34962
    }
  ],
  "buffers": [
    {
      "byteLength": 346624,
      "uri": "scene.bin"
    }
  ],
  "images": [
    {
      "uri": "textures/Soccer_Ball_Material_baseColor.jpeg"
    }
  ],
  "materials": [
    {
      "doubleSided": true,
      "name": "Soccer_Ball_Material",
      "pbrMetallicRoughness": {
        "baseColorTexture": {
          "index": 0
        },
        "metallicFactor": 0.0
      }
    }
  ],
  "meshes": [
    {
      "name": "Soccer Ball_Soccer Ball Material_0",
      "primitives": [
        {
          "attributes": {
            "NORMAL": 1,
            "POSITION": 0,
            "TEXCOORD_0": 2
          },
          "indices": 3,
          "material": 0,
          "mode": 4
        }
      ]
    }
  ],
  "nodes": [
    {
      "children": [
        1
      ],
      "matrix": [
        1.0,
        0.0,
        0.0,
        0.0,
        0.0,
        2.220446049250313e-16,
        -1.0,
        0.0,
        0.0,
        1.0,
        2.220446049250313e-16,
        0.0,
        0.0,
        0.0,
        0.0,
        1.0
      ],
      "name": "Sketchfab_model"
    },
    {
      "children": [
        2
      ],
      "matrix": [
        1.0,
        0.0,
        0.0,
        0.0,
        0.0,
        0.0,
        1.0,
        0.0,
        0.0,
        -1.0,
        0.0,
        0.0,
        0.0,
        0.0,
        0.0,
        1.0
      ],
      "name": "Soccer_Ball.FBX"
    },
    {
      "children": [
        3
      ],
      "name": "RootNode"
    },
    {
      "children": [
        4
      ],
      "matrix": [
        100.0,
        0.0,
        0.0,
        0.0,
        0.0,
        -1.629206793918314e-05,
        -99.99999999999868,
        0.0,
        0.0,
        99.99999999999868,
        -1.629206793918314e-05,
        0.0,
        0.0,
        0.0,
        0.0,
        1.0
      ],
      "name": "Soccer Ball"
    },
    {
      "mesh": 0,
      "name": "Soccer Ball_Soccer Ball Material_0"
    }
  ],
  "samplers": [
    {
      "magFilter": 9729,
      "minFilter": 9987,
      "wrapS": 10497,
      "wrapT": 10497
    }
  ],
  "scene": 0,
  "scenes": [
    {
      "name": "Sketchfab_Scene",
      "nodes": [
        0
      ]
    }
  ],
  "textures": [
    {
      "sampler": 0,
      "source": 0
    }
  ]
}
